PathFileType   4   (X/Y/Z)
DataRate	CameraRate	NumFrames	NumMarkers	Units	OrigDataRate	OrigDataStartFrame	OrigNumFrames
120.0	120.0	10	37	mm	120.0	97	155
Frame#	Time	midhip	hip_r	hip_l	knee_r	knee_l	ankle_r	ankle_l	midasis	asis_r	asis_l	psis_r	psis_l	epicondLat_r	epicondLat_l	epicondMed_r	epicondMed_l	malleolusLat_r	malleolusLat_l	malleolusMedv_r	malleolusMedv_l	neck	subclavicle_r	subclavicle_l	sternalnotch	xyphoidprocess	thighwand_r	thighwand_l	upperleg1_r	upperleg1_l	upperleg2_r	upperleg2_l	shankwand_r	shankwand_l	lowerleg1_r	lowerleg1_l	toe_r	toe_l
 	 	X1	Y1	Z1	X2	Y2	Z2	X3	Y3	Z3	X4	Y4	Z4	X5	Y5	Z5	X6	Y6	Z6	X7	Y7	Z7	X8	Y8	Z8	X9	Y9	Z9	X10	Y10	Z10	X11	Y11	Z11	X12	Y12	Z12	X13	Y13	Z13	X14	Y14	Z14	X15	Y15	Z15	X16	Y16	Z16	X17	Y17	Z17	X18	Y18	Z18	X19	Y19	Z19	X20	Y20	Z20	X21	Y21	Z21	X22	Y22	Z22	X23	Y23	Z23	X24	Y24	Z24	X25	Y25	Z25	X26	Y26	Z26	X27	Y27	Z27	X28	Y28	Z28	X29	Y29	Z29	X30	Y30	Z30	X31	Y31	Z31	X32	Y32	Z32	X33	Y33	Z33	X34	Y34	Z34	X35	Y35	Z35	X36	Y36	Z36	X37	Y37	Z37

	97	1.04167	1263.255	839.155	-220.460	1260.850	819.850	-158.695	1259.075	821.077	-276.147	1253.330	440.170	-136.702	1337.834	469.304	-254.330	950.194	191.442	-154.755	1290.464	66.070	-234.094	1322.141	898.503	-211.586	1315.199	896.597	-112.109	1329.084	900.409	-311.063	1165.030	931.661	-197.002	1168.923	932.716	-251.961	1253.743	443.342	-81.795	1355.919	470.166	-305.735	1265.289	432.459	-194.519	1325.238	451.727	-216.187	940.532	200.595	-118.628	1298.111	63.283	-271.723	977.238	189.782	-181.253	1310.245	80.240	-208.203	1199.781	1339.141	-195.666	1307.318	1271.534	-156.229	1300.017	1272.305	-262.542	1287.708	1282.054	-213.274	1351.638	1118.642	-217.932	1402.362	611.420	-125.035	1428.830	655.439	-226.160	1321.724	660.203	-92.224	1367.728	681.087	-301.681	1313.950	574.900	-91.804	1384.378	595.604	-291.415	1025.889	285.358	-44.483	1282.842	179.254	-346.488	1037.115	285.906	-85.213	1290.651	186.772	-305.057	999.623	90.198	-123.473	1419.919	37.543	-237.749
	98	1.05000	1269.038	839.603	-221.117	1266.904	820.420	-159.316	1264.988	821.579	-276.767	1266.911	440.774	-136.560	1340.054	469.256	-254.750	962.459	194.689	-154.341	1290.549	66.152	-234.076	1327.871	899.249	-212.319	1321.050	897.372	-112.842	1334.692	901.126	-311.796	1170.619	931.802	-197.370	1174.475	933.018	-252.285	1267.668	444.065	-81.664	1358.019	469.868	-306.200	1278.997	432.743	-194.316	1327.229	451.851	-216.583	952.883	203.926	-118.213	1298.093	63.295	-271.721	989.630	192.698	-180.821	1310.429	80.314	-208.197	1205.205	1339.689	-196.206	1312.521	1272.122	-156.586	1305.243	1272.837	-262.973	1293.005	1282.619	-213.709	1356.729	1119.158	-218.224	1412.781	614.543	-126.283	1433.027	654.371	-227.035	1331.595	661.891	-93.092	1371.872	680.712	-302.265	1325.577	576.425	-92.385	1387.631	595.096	-292.055	1038.970	288.111	-44.255	1283.263	179.323	-346.608	1050.170	288.560	-84.983	1291.113	186.826	-305.249	1011.980	93.679	-121.628	1419.954	37.510	-237.792
	99	1.05833	1274.736	840.080	-221.757	1272.911	821.006	-159.887	1270.823	822.080	-277.336	1280.417	441.544	-136.509	1342.192	469.221	-255.154	975.191	197.398	-153.905	1290.654	66.240	-234.039	1333.544	899.998	-213.030	1326.873	898.166	-113.562	1340.215	901.830	-312.498	1176.136	931.968	-197.705	1179.928	933.331	-252.561	1281.501	444.947	-81.625	1359.995	469.584	-306.663	1292.246	433.492	-194.261	1329.176	452.000	-216.977	965.667	206.732	-117.789	1298.072	63.317	-271.704	1002.295	194.829	-180.288	1310.490	80.427	-208.241	1210.532	1340.242	-196.768	1317.635	1272.709	-156.898	1310.532	1273.370	-263.371	1298.239	1283.168	-214.112	1361.859	1119.686	-218.413	1423.058	617.790	-127.531	1437.158	653.274	-227.975	1341.398	663.660	-93.643	1375.940	680.345	-302.887	1337.052	578.113	-92.849	1390.797	594.571	-292.748	1052.260	290.591	-44.051	1283.610	179.392	-346.697	1063.483	290.945	-84.769	1291.638	186.853	-305.249	1025.062	96.800	-119.831	1419.993	37.485	-237.831
	100	1.06667	1280.346	840.563	-222.355	1278.883	821.596	-160.411	1276.592	822.571	-277.857	1293.844	442.461	-136.546	1344.263	469.198	-255.553	988.365	199.556	-153.457	1290.775	66.332	-233.988	1339.168	900.743	-213.719	1332.674	898.968	-114.264	1345.662	902.519	-313.173	1181.581	932.143	-197.999	1185.281	933.642	-252.784	1295.225	445.970	-81.676	1361.866	469.313	-307.131	1305.145	434.423	-193.997	1331.111	452.170	-217.324	978.872	208.981	-117.356	1298.049	63.349	-271.677	1015.290	196.398	-179.777	1310.560	80.561	-208.288	1215.792	1340.810	-197.373	1322.710	1273.280	-157.190	1315.881	1273.928	-263.715	1303.416	1283.692	-214.499	1367.036	1120.233	-218.586	1433.186	621.141	-128.742	1441.235	652.155	-228.976	1351.082	665.503	-94.029	1379.941	680.000	-303.529	1348.338	579.957	-93.145	1393.899	594.006	-293.461	1065.773	292.730	-43.858	1283.894	179.466	-346.761	1077.038	293.010	-84.600	1291.950	186.924	-305.253	1038.835	99.538	-118.102	1420.035	37.466	-237.868
	101	1.07500	1285.871	841.034	-222.978	1284.818	822.176	-160.893	1282.296	823.042	-278.335	1307.172	443.512	-136.659	1346.280	469.182	-255.948	1001.956	201.161	-153.006	1290.906	66.431	-233.930	1344.739	901.476	-214.386	1338.446	899.766	-114.946	1351.032	903.185	-313.827	1186.952	932.308	-198.241	1190.536	933.938	-252.952	1308.818	447.120	-81.802	1363.653	469.056	-307.605	1316.828	435.569	-194.162	1332.884	452.373	-217.751	992.483	210.657	-116.918	1298.023	63.391	-271.644	1029.022	197.918	-179.302	1310.643	80.657	-208.302	1221.023	1341.346	-197.920	1327.759	1273.800	-157.497	1321.088	1274.388	-264.073	1308.548	1284.183	-214.877	1372.053	1120.679	-218.751	1443.154	624.573	-129.901	1445.263	651.024	-230.019	1360.523	667.364	-94.527	1383.890	679.631	-304.238	1358.849	581.515	-93.611	1396.892	593.452	-294.255	1079.512	294.481	-43.667	1284.135	179.547	-346.808	1090.829	294.694	-84.459	1292.214	186.998	-305.258	1053.258	101.880	-116.462	1420.079	37.449	-237.904
	102	1.08333	1291.340	841.502	-223.629	1290.707	822.736	-161.341	1287.929	823.485	-278.778	1320.374	444.684	-136.830	1348.253	469.172	-256.337	1015.933	202.223	-152.563	1291.035	66.538	-233.866	1350.249	902.184	-215.035	1344.177	900.545	-115.605	1356.320	903.823	-314.466	1192.249	932.454	-198.419	1195.702	934.201	-253.064	1322.256	448.387	-81.987	1365.377	468.810	-308.076	1325.727	437.121	-195.081	1334.573	452.575	-218.189	1006.474	211.759	-116.482	1297.996	63.443	-271.605	1043.339	199.228	-178.833	1310.705	80.743	-208.322	1226.218	1341.843	-198.495	1332.773	1274.271	-157.834	1326.130	1274.743	-264.485	1313.644	1284.640	-215.251	1376.892	1121.023	-218.932	1452.945	628.065	-131.014	1449.238	649.891	-231.079	1369.694	669.247	-95.098	1387.737	679.213	-305.012	1367.949	582.334	-94.321	1399.776	592.879	-295.102	1093.464	295.816	-43.476	1284.365	179.637	-346.842	1104.836	295.984	-84.310	1292.500	187.089	-305.295	1068.283	103.820	-114.929	1420.121	37.430	-237.943
	103	1.09167	1296.743	841.941	-224.208	1296.533	823.265	-161.761	1293.481	823.895	-279.192	1333.418	445.966	-137.039	1350.189	469.162	-256.710	1030.267	202.761	-152.141	1291.156	66.656	-233.798	1355.686	902.861	-215.667	1349.850	901.295	-116.239	1361.521	904.426	-315.096	1197.472	932.576	-198.523	1200.785	934.423	-253.119	1335.524	449.765	-82.211	1367.056	468.574	-308.531	1343.166	437.154	-193.868	1336.345	452.778	-218.478	1020.818	212.298	-116.058	1297.970	63.507	-271.559	1057.799	199.857	-178.414	1310.792	80.817	-208.349	1231.370	1342.301	-199.063	1337.763	1274.702	-158.157	1331.156	1275.099	-264.910	1318.703	1285.063	-215.627	1381.742	1121.361	-219.170	1462.538	631.598	-132.109	1453.146	648.766	-232.124	1378.670	671.129	-95.581	1391.483	678.740	-305.807	1380.532	584.857	-94.361	1402.621	592.303	-295.906	1107.606	296.729	-43.290	1284.608	179.736	-346.867	1119.018	296.859	-84.169	1292.802	187.215	-305.367	1083.858	105.361	-113.517	1420.155	37.410	-237.988
	104	1.10000	1302.061	842.321	-224.608	1302.275	823.758	-162.161	1298.943	824.268	-279.584	1346.280	447.346	-137.269	1352.089	469.150	-257.055	1044.929	202.795	-151.748	1291.266	66.787	-233.720	1361.038	903.497	-216.281	1355.444	902.005	-116.842	1366.633	904.988	-315.720	1202.622	932.671	-198.544	1205.792	934.595	-253.117	1348.616	451.244	-82.457	1368.705	468.344	-308.953	1357.777	437.800	-192.944	1338.114	452.981	-218.761	1035.485	212.296	-115.653	1297.950	63.586	-271.500	1072.551	199.909	-178.003	1310.888	80.897	-208.354	1236.449	1342.695	-199.600	1342.682	1275.083	-158.469	1336.315	1275.466	-265.257	1323.720	1285.454	-216.008	1386.734	1121.714	-219.369	1471.917	635.155	-133.230	1456.974	647.656	-233.122	1387.074	672.692	-95.898	1395.208	678.277	-306.563	1391.526	587.447	-94.378	1405.463	591.722	-296.662	1121.913	297.233	-43.112	1284.880	179.844	-346.882	1133.329	297.345	-84.001	1293.138	187.349	-305.462	1099.926	106.513	-112.236	1420.177	37.389	-238.042
	105	1.10833	1307.329	842.688	-224.807	1307.924	824.209	-162.545	1304.316	824.600	-279.961	1358.951	448.810	-137.514	1353.952	469.131	-257.360	1059.891	202.354	-151.390	1291.376	66.933	-233.631	1366.302	904.088	-216.876	1360.945	902.670	-117.412	1371.660	905.505	-316.339	1207.701	932.741	-198.478	1210.731	934.711	-253.062	1361.538	452.815	-82.721	1370.334	468.114	-309.329	1371.004	438.736	-192.301	1339.743	453.244	-219.057	1050.445	211.783	-115.278	1297.945	63.681	-271.427	1087.553	199.253	-177.556	1310.937	80.975	-208.319	1241.521	1343.040	-200.138	1347.532	1275.416	-158.828	1341.457	1275.841	-265.535	1328.707	1285.817	-216.395	1391.681	1122.050	-219.617	1481.075	638.725	-134.419	1460.712	646.568	-234.044	1395.388	674.360	-96.278	1398.917	677.863	-307.217	1401.896	589.760	-94.524	1408.245	591.198	-297.349	1136.354	297.352	-42.950	1285.185	179.958	-346.882	1147.761	297.456	-83.798	1293.530	187.484	-305.529	1116.434	107.289	-111.089	1420.190	37.368	-238.100
	106	1.11667	1312.523	843.022	-224.879	1313.482	824.616	-162.917	1309.608	824.891	-280.325	1371.431	450.344	-137.775	1355.778	469.105	-257.616	1075.127	201.464	-151.070	1291.498	67.093	-233.528	1371.483	904.632	-217.450	1366.352	903.286	-117.949	1376.613	905.978	-316.951	1212.713	932.785	-198.326	1215.606	934.766	-252.962	1374.300	454.468	-83.005	1371.950	467.883	-309.647	1383.397	439.915	-191.575	1341.390	453.496	-219.378	1065.669	210.795	-114.935	1297.964	63.793	-271.338	1102.617	198.224	-177.251	1310.957	81.033	-208.256	1246.622	1343.418	-200.596	1352.460	1275.701	-159.260	1346.432	1276.227	-265.908	1333.689	1286.152	-216.785	1396.473	1122.342	-220.139	1490.012	642.298	-135.706	1464.352	645.500	-234.869	1404.079	676.423	-96.827	1402.547	677.480	-307.778	1412.292	591.946	-94.777	1410.990	590.735	-297.972	1150.900	297.121	-42.809	1285.519	180.075	-346.863	1162.301	297.219	-83.615	1293.940	187.605	-305.546	1133.329	107.708	-110.075	1420.195	37.350	-238.159
